<svg version="1.1" viewBox="0.0 0.0 960.0 540.0" fill="none" stroke="none" stroke-linecap="square" stroke-miterlimit="10" xmlns:xlink="http://www.w3.org/1999/xlink" xmlns="http://www.w3.org/2000/svg"><clipPath id="g4fa876d5d2_0_20.0"><path d="m0 0l960.0 0l0 540.0l-960.0 0l0 -540.0z" clip-rule="nonzero"/></clipPath><g clip-path="url(#g4fa876d5d2_0_20.0)"><path fill="#599191" d="m0 0l960.0 0l0 540.0l-960.0 0z" fill-rule="evenodd"/><path fill="#ffffff" fill-opacity="0.0941" d="m787.5489 467.5812l0 0l0 0c4.4105225 0 8.640381 1.7520752 11.759155 4.8707886c3.1187134 3.1187134 4.8707886 7.3486023 4.8707886 11.759125l0 55.653564c0 1.2207031E-4 -1.2207031E-4 2.4414062E-4 -3.0517578E-4 2.4414062E-4l-33.259583 -2.4414062E-4l0 0c-1.2207031E-4 0 -2.4414062E-4 -1.2207031E-4 -2.4414062E-4 -3.0517578E-4l2.4414062E-4 -55.65326l0 0c0 -9.184448 7.4454956 -16.629913 16.629944 -16.629913z" fill-rule="evenodd"/><path fill="#ffffff" fill-opacity="0.0941" d="m787.5489 504.11795l0 0l0 0c4.4105225 0 8.640381 1.7520752 11.759155 4.8707886c3.1187134 3.118744 4.8707886 7.3486023 4.8707886 11.759125l0 19.118103c0 1.8310547E-4 -1.2207031E-4 3.0517578E-4 -3.0517578E-4 3.0517578E-4l-33.259583 -3.0517578E-4l0 0c-1.2207031E-4 0 -2.4414062E-4 -1.2207031E-4 -2.4414062E-4 -2.4414062E-4l2.4414062E-4 -19.117859l0 0c0 -9.184448 7.4454956 -16.629913 16.629944 -16.629913z" fill-rule="evenodd"/><path fill="#ffffff" fill-opacity="0.0941" d="m835.6546 467.5812l0 0l0 0c4.4105225 0 8.640442 1.7520752 11.759155 4.8707886c3.1187134 3.1187134 4.8707886 7.3486023 4.8707886 11.759125l0 55.653564c0 1.2207031E-4 -1.2207031E-4 2.4414062E-4 -3.0517578E-4 2.4414062E-4l-33.259583 -2.4414062E-4l0 0c-1.2207031E-4 0 -2.4414062E-4 -1.2207031E-4 -2.4414062E-4 -3.0517578E-4l2.4414062E-4 -55.65326l0 0c0 -9.184448 7.4454956 -16.629913 16.629944 -16.629913z" fill-rule="evenodd"/><path fill="#ffffff" fill-opacity="0.0941" d="m835.6546 431.04462l0 0l0 0c4.4105225 0 8.640442 1.7520752 11.759155 4.8707886c3.1187134 3.1187134 4.8707886 7.3486023 4.8707886 11.759125l0 92.188995c0 1.2207031E-4 -1.2207031E-4 2.4414062E-4 -3.0517578E-4 2.4414062E-4l-33.259583 -2.4414062E-4l0 0c-1.2207031E-4 0 -2.4414062E-4 -1.2207031E-4 -2.4414062E-4 -3.0517578E-4l2.4414062E-4 -92.18869l0 0c0 -9.184448 7.4454956 -16.629913 16.629944 -16.629913z" fill-rule="evenodd"/><path fill="#ffffff" fill-opacity="0.0941" d="m835.6546 504.11795l0 0l0 0c4.4105225 0 8.640442 1.7520752 11.759155 4.8707886c3.1187134 3.118744 4.8707886 7.3486023 4.8707886 11.759125l0 19.118103c0 1.8310547E-4 -1.2207031E-4 3.0517578E-4 -3.0517578E-4 3.0517578E-4l-33.259583 -3.0517578E-4l0 0c-1.2207031E-4 0 -2.4414062E-4 -1.2207031E-4 -2.4414062E-4 -2.4414062E-4l2.4414062E-4 -19.117859l0 0c0 -9.184448 7.4454956 -16.629913 16.629944 -16.629913z" fill-rule="evenodd"/><path fill="#ffffff" fill-opacity="0.0941" d="m883.76044 467.5812l0 0l0 0c4.4105225 0 8.640381 1.7520752 11.759094 4.8707886c3.1187134 3.1187134 4.8707886 7.3486023 4.8707886 11.759125l0 55.653564c0 1.2207031E-4 -1.2207031E-4 2.4414062E-4 -2.4414062E-4 2.4414062E-4l-33.259583 -2.4414062E-4l0 0c-1.2207031E-4 0 -3.0517578E-4 -1.2207031E-4 -3.0517578E-4 -3.0517578E-4l3.0517578E-4 -55.65326l0 0c0 -9.184448 7.4454956 -16.629913 16.629944 -16.629913z" fill-rule="evenodd"/><path fill="#ffffff" fill-opacity="0.0941" d="m883.76044 394.50797l0 0l0 0c4.4105225 0 8.640381 1.7520752 11.759094 4.8707886c3.1187134 3.1187134 4.8707886 7.3486023 4.8707886 11.759125l0 128.72443c0 1.2207031E-4 -1.2207031E-4 2.4414062E-4 -2.4414062E-4 2.4414062E-4l-33.259583 -2.4414062E-4l0 0c-1.2207031E-4 0 -3.0517578E-4 -1.2207031E-4 -3.0517578E-4 -3.0517578E-4l3.0517578E-4 -128.72412l0 0c0 -9.184448 7.4454956 -16.629913 16.629944 -16.629913z" fill-rule="evenodd"/><path fill="#ffffff" fill-opacity="0.0941" d="m883.76044 431.04462l0 0l0 0c4.4105225 0 8.640381 1.7520752 11.759094 4.8707886c3.1187134 3.1187134 4.8707886 7.3486023 4.8707886 11.759125l0 92.188995c0 1.2207031E-4 -1.2207031E-4 2.4414062E-4 -2.4414062E-4 2.4414062E-4l-33.259583 -2.4414062E-4l0 0c-1.2207031E-4 0 -3.0517578E-4 -1.2207031E-4 -3.0517578E-4 -3.0517578E-4l3.0517578E-4 -92.18869l0 0c0 -9.184448 7.4454956 -16.629913 16.629944 -16.629913z" fill-rule="evenodd"/><path fill="#ffffff" fill-opacity="0.0941" d="m883.76044 504.11795l0 0l0 0c4.4105225 0 8.640381 1.7520752 11.759094 4.8707886c3.1187134 3.118744 4.8707886 7.3486023 4.8707886 11.759125l0 19.118103c0 1.8310547E-4 -1.2207031E-4 3.0517578E-4 -2.4414062E-4 3.0517578E-4l-33.259583 -3.0517578E-4l0 0c-1.2207031E-4 0 -3.0517578E-4 -1.2207031E-4 -3.0517578E-4 -2.4414062E-4l3.0517578E-4 -19.117859l0 0c0 -9.184448 7.4454956 -16.629913 16.629944 -16.629913z" fill-rule="evenodd"/><path fill="#ffffff" fill-opacity="0.0941" d="m931.86615 467.5812l0 0l0 0c4.4105225 0 8.640381 1.7520752 11.759094 4.8707886c3.1187134 3.1187134 4.8707886 7.3486023 4.8707886 11.759125l0 55.653564c0 1.2207031E-4 -1.2207031E-4 2.4414062E-4 -2.4414062E-4 2.4414062E-4l-33.259583 -2.4414062E-4l0 0c-1.2207031E-4 0 -2.4414062E-4 -1.2207031E-4 -2.4414062E-4 -3.0517578E-4l2.4414062E-4 -55.65326l0 0c0 -9.184448 7.4454956 -16.629913 16.629944 -16.629913z" fill-rule="evenodd"/><path fill="#ffffff" fill-opacity="0.0941" d="m931.86615 394.50797l0 0l0 0c4.4105225 0 8.640381 1.7520752 11.759094 4.8707886c3.1187134 3.1187134 4.8707886 7.3486023 4.8707886 11.759125l0 128.72443c0 1.2207031E-4 -1.2207031E-4 2.4414062E-4 -2.4414062E-4 2.4414062E-4l-33.259583 -2.4414062E-4l0 0c-1.2207031E-4 0 -2.4414062E-4 -1.2207031E-4 -2.4414062E-4 -3.0517578E-4l2.4414062E-4 -128.72412l0 0c0 -9.184448 7.4454956 -16.629913 16.629944 -16.629913z" fill-rule="evenodd"/><path fill="#ffffff" fill-opacity="0.0941" d="m931.86615 431.04462l0 0l0 0c4.4105225 0 8.640381 1.7520752 11.759094 4.8707886c3.1187134 3.1187134 4.8707886 7.3486023 4.8707886 11.759125l0 92.188995c0 1.2207031E-4 -1.2207031E-4 2.4414062E-4 -2.4414062E-4 2.4414062E-4l-33.259583 -2.4414062E-4l0 0c-1.2207031E-4 0 -2.4414062E-4 -1.2207031E-4 -2.4414062E-4 -3.0517578E-4l2.4414062E-4 -92.18869l0 0c0 -9.184448 7.4454956 -16.629913 16.629944 -16.629913z" fill-rule="evenodd"/><path fill="#ffffff" fill-opacity="0.0941" d="m931.86615 357.97116l0 0l0 0c4.4105225 0 8.640381 1.7520752 11.759094 4.8707886c3.1187134 3.1187134 4.8707886 7.3486023 4.8707886 11.759155l0 165.25986c0 1.2207031E-4 -1.2207031E-4 2.4414062E-4 -2.4414062E-4 2.4414062E-4l-33.259583 -2.4414062E-4l0 0c-1.2207031E-4 0 -2.4414062E-4 -1.8310547E-4 -2.4414062E-4 -3.0517578E-4l2.4414062E-4 -165.25955l0 0c0 -9.184479 7.4454956 -16.629944 16.629944 -16.629944z" fill-rule="evenodd"/><path fill="#ffffff" fill-opacity="0.0941" d="m931.86615 504.11795l0 0l0 0c4.4105225 0 8.640381 1.7520752 11.759094 4.8707886c3.1187134 3.118744 4.8707886 7.3486023 4.8707886 11.759125l0 19.118103c0 1.8310547E-4 -1.2207031E-4 3.0517578E-4 -2.4414062E-4 3.0517578E-4l-33.259583 -3.0517578E-4l0 0c-1.2207031E-4 0 -2.4414062E-4 -1.2207031E-4 -2.4414062E-4 -2.4414062E-4l2.4414062E-4 -19.117859l0 0c0 -9.184448 7.4454956 -16.629913 16.629944 -16.629913z" fill-rule="evenodd"/><path fill="#ffffff" fill-opacity="0.0941" d="m888.2913 211.66142l0 0c0 -11.497971 9.320984 -20.818909 20.818909 -20.818909l0 0c5.5215454 0 10.816895 2.1934204 14.721191 6.0977173c3.9042969 3.9042969 6.0977173 9.1996765 6.0977173 14.721191l0 0c0 11.497955 -9.320923 20.818893 -20.818909 20.818893l0 0c-11.497925 0 -20.818909 -9.320938 -20.818909 -20.818893z" fill-rule="evenodd"/><path fill="#ffffff" fill-opacity="0.0941" d="m712.1872 386.9136l0 0c-2.58313 8.914825 -11.904114 14.047668 -20.818909 11.464539l0 0c-4.281067 -1.240448 -7.893982 -4.1307373 -10.044006 -8.035034c-2.1500244 -3.9042969 -2.6610107 -8.502808 -1.4205933 -12.783844l0 0c2.58313 -8.914825 11.904114 -14.047699 20.818909 -11.464569l0 0c8.914856 2.58313 14.0477295 11.904053 11.4646 20.818909z" fill-rule="evenodd"/><path fill="#ffffff" fill-opacity="0.0941" d="m836.2647 283.91425l0 0c18.415833 0 33.34485 14.928986 33.34485 33.34482l0 0c0 8.843628 -3.5131226 17.325012 -9.7664795 23.57837c-6.253357 6.253357 -14.734741 9.7664795 -23.57837 9.7664795l0 0c-18.415833 0 -33.344788 -14.928986 -33.344788 -33.34485l0 0c0 -18.415833 14.928955 -33.34482 33.344788 -33.34482z" fill-rule="evenodd"/><path fill="#ffffff" fill-opacity="0.0941" d="m813.7002 292.70868l0 0c9.801636 -9.008759 24.022583 -11.324127 36.17572 -5.8898926c12.153137 5.4342346 19.909363 17.5766 19.73059 30.888153l-33.341797 -0.44787598z" fill-rule="evenodd"/><path fill="#ffffff" fill-opacity="0.0941" d="m836.2682 296.56314l0 0c11.428162 0 20.692505 9.264374 20.692505 20.692505l0 0c0 5.4880066 -2.1801147 10.751221 -6.06073 14.631836c-3.8805542 3.8805847 -9.143799 6.0606995 -14.631775 6.0606995l0 0c-11.428162 0 -20.692505 -9.264374 -20.692505 -20.692535l0 0c0 -11.428131 9.264343 -20.692505 20.692505 -20.692505z" fill-rule="evenodd"/><path fill="#ffffff" fill-opacity="0.0941" d="m925.7254 199.11703l0 0c5.821594 7.7107086 5.573303 18.41333 -0.59954834 25.84578c-6.1728516 7.4324493 -16.64795 9.641418 -25.296387 5.334442c-8.6484375 -4.3069916 -13.197266 -13.998016 -10.984985 -23.402863c2.2122192 -9.404846 10.604187 -16.05185 20.265747 -16.05185l0 20.818893z" fill-rule="evenodd"/><path fill="#ffffff" fill-opacity="0.0941" d="m907.3644 83.878654l0 0c-10.624634 14.686798 -31.145874 17.981392 -45.83539 7.358696l0 0c-7.054199 -5.101204 -11.792603 -12.795204 -13.172852 -21.389412c-1.38031 -8.594212 0.7106323 -17.384636 5.812744 -24.437485l0 0c10.624695 -14.686794 31.145935 -17.981392 45.83545 -7.358692l0 0c14.689514 10.6227 17.984741 31.140102 7.3600464 45.826893z" fill-rule="evenodd"/><path fill="#ffffff" fill-opacity="0.0941" d="m847.9479 65.31851c-0.3305664 -16.088425 11.054443 -30.043423 26.884033 -32.952755c15.82959 -2.9093304 31.434082 6.085251 36.84778 21.23943c5.4136963 15.154175 -0.96032715 31.99752 -15.051453 39.773163l-15.861572 -28.733818z" fill-rule="evenodd"/><path fill="#ffffff" fill-opacity="0.0941" d="m566.91235 172.6892l0 0c0 -74.71064 60.56494 -135.27559 135.27557 -135.27559l0 0c35.87732 0 70.28522 14.252209 95.6543 39.621304c25.36908 25.369095 39.621338 59.776978 39.621338 95.65428l0 0c0 74.71065 -60.56494 135.27559 -135.27563 135.27559l0 0c-74.71063 0 -135.27557 -60.56494 -135.27557 -135.27559z" fill-rule="evenodd"/><path fill="#ffffff" fill-opacity="0.0941" d="m599.1709 103.03936l0 0c38.477295 -56.907074 115.801575 -71.84737 172.70868 -33.37008l0 0c27.327698 18.47744 46.196045 47.054 52.454163 79.44316c6.2581177 32.38916 -0.60668945 65.93776 -19.084106 93.2655l0 0c-38.477295 56.90706 -115.801575 71.84737 -172.70868 33.37007l0 0c-56.907043 -38.47728 -71.84735 -115.80159 -33.370056 -172.70865z" fill-rule="evenodd"/><path fill="#ffffff" fill-opacity="0.0941" d="m589.1371 247.39746l0 0c-27.312927 -41.5578 -29.621948 -94.75075 -6.0128174 -138.51898c23.60913 -43.76822 69.32922 -71.05369 119.05896 -71.05369l0 135.27559z" fill-rule="evenodd"/><path fill="#599191" d="m634.6362 126.97012l0 0c25.248535 -37.320534 75.970825 -47.10681 113.29132 -21.858269l0 0c17.921997 12.124779 30.293335 30.872429 34.39258 52.118675c4.099182 21.246246 -0.40948486 43.250717 -12.534302 61.17267l0 0c-25.248535 37.320526 -75.970764 47.10681 -113.29132 21.858261l0 0c-37.320557 -25.248535 -47.10681 -75.970795 -21.858276 -113.291336z" fill-rule="evenodd"/><path fill="#ffffff" fill-opacity="0.0941" d="m584.13855 106.620865l0 0c23.919128 -42.73689 69.06952 -69.20793 118.04468 -69.20793l0 135.27559z" fill-rule="evenodd"/><path fill="#ffffff" fill-opacity="0.0941" d="m680.3448 388.2298l0 0c-2.781372 -7.2862854 -0.18444824 -15.528687 6.2713623 -19.904572c6.4558716 -4.375885 15.073914 -3.73526 20.811768 1.5470886c5.737854 5.282318 7.0875854 13.818085 3.2594604 20.613068c-3.828186 6.7949524 -11.828125 10.063293 -19.319092 7.8927307l4.677124 -16.141724z" fill-rule="evenodd"/><path fill="#000000" fill-opacity="0.0" d="m86.509186 169.42914l446.77164 0l0 196.62991l-446.77164 0z" fill-rule="evenodd"/><path fill="#ffffff" d="m108.321686 285.21472q-4.5625 0 -9.359375 -2.5l0 -6.625q2.6875 1.578125 4.71875 2.421875q2.046875 0.84375 4.3125 0.84375q2.78125 0 4.34375 -1.03125q1.5625 -1.03125 1.5625 -2.90625q0 -4.21875 -6.046875 -4.21875l-4.765625 0l0 -5.859375l4.859375 0q2.25 0 3.375 -0.9375q1.125 -0.9375 1.125 -2.421875q0 -1.875 -1.46875 -2.734375q-1.453125 -0.875 -3.8125 -0.875q-1.71875 0 -3.46875 0.4375q-1.75 0.4375 -4.109375 1.53125l0 -5.90625q1.875 -0.953125 4.03125 -1.5q2.15625 -0.5625 4.328125 -0.5625q4.796875 0 8.078125 2.21875q3.296875 2.203125 3.296875 6.515625q0 1.6875 -0.796875 3.078125q-0.796875 1.390625 -1.921875 2.234375q-1.125 0.84375 -2.03125 1.03125q1.4375 0.4375 2.84375 1.546875q1.421875 1.09375 2.359375 2.84375q0.9375 1.75 0.9375 3.953125q0 4.765625 -3.53125 7.09375q-3.53125 2.328125 -8.859375 2.328125zm19.153809 -32.40625l12.859375 0q8.078125 0 11.953125 4.015625q3.890625 4.0 3.890625 12.015625q0 7.96875 -3.890625 11.984375q-3.875 4.0 -11.953125 4.0l-12.859375 0l0 -32.015625zm11.953125 26.015625q4.375 0 6.578125 -2.4375q2.203125 -2.453125 2.203125 -7.546875q0 -5.1875 -2.203125 -7.609375q-2.203125 -2.421875 -6.578125 -2.421875l-4.171875 0l0 20.015625l4.171875 0z" fill-rule="nonzero"/><path fill="#000000" fill-opacity="0.0" d="m86.509186 377.5643l446.77164 0l0 73.00787l-446.77164 0z" fill-rule="evenodd"/><path fill="#ffffff" d="m101.39981 407.20056q-1.453125 0 -2.578125 -0.65625q-1.109375 -0.671875 -1.71875 -1.890625q-0.609375 -1.21875 -0.609375 -2.8125q0 -1.59375 0.625 -2.828125q0.625 -1.25 1.75 -1.921875q1.140625 -0.6875 2.609375 -0.6875q0.8125 0 1.609375 0.234375q0.796875 0.21875 1.40625 0.640625q0.375 0.25 0.53125 0.5q0.171875 0.25 0.171875 0.546875q0 0.296875 -0.171875 0.484375q-0.15625 0.1875 -0.40625 0.1875q-0.15625 0 -0.328125 -0.078125q-0.171875 -0.09375 -0.296875 -0.171875q-0.109375 -0.078125 -0.140625 -0.109375q-0.5625 -0.359375 -1.0625 -0.5625q-0.5 -0.21875 -1.21875 -0.21875q-1.5625 0 -2.4375 1.0625q-0.859375 1.046875 -0.859375 2.921875q0 1.875 0.859375 2.90625q0.875 1.015625 2.4375 1.015625q0.71875 0 1.234375 -0.203125q0.53125 -0.21875 1.0625 -0.578125q0.234375 -0.15625 0.4375 -0.265625q0.21875 -0.109375 0.375 -0.109375q0.234375 0 0.390625 0.203125q0.15625 0.1875 0.15625 0.484375q0 0.28125 -0.15625 0.5q-0.140625 0.21875 -0.546875 0.5q-0.59375 0.40625 -1.4375 0.65625q-0.84375 0.25 -1.6875 0.25zm10.231842 0q-1.46875 0 -2.59375 -0.65625q-1.109375 -0.671875 -1.71875 -1.890625q-0.609375 -1.234375 -0.609375 -2.859375q0 -1.625 0.609375 -2.84375q0.609375 -1.234375 1.71875 -1.890625q1.125 -0.65625 2.59375 -0.65625q1.46875 0 2.59375 0.65625q1.140625 0.65625 1.75 1.890625q0.609375 1.21875 0.609375 2.84375q0 1.625 -0.609375 2.859375q-0.609375 1.21875 -1.75 1.890625q-1.125 0.65625 -2.59375 0.65625zm0 -1.4375q1.53125 0 2.34375 -1.015625q0.828125 -1.015625 0.828125 -2.953125q0 -1.890625 -0.828125 -2.921875q-0.828125 -1.046875 -2.34375 -1.046875q-1.515625 0 -2.34375 1.046875q-0.828125 1.03125 -0.828125 2.921875q0 1.921875 0.8125 2.953125q0.828125 1.015625 2.359375 1.015625zm19.087158 -9.359375q3.453125 0 3.453125 4.109375l0 5.78125q0 0.40625 -0.234375 0.640625q-0.234375 0.21875 -0.609375 0.21875q-0.390625 0 -0.640625 -0.21875q-0.234375 -0.234375 -0.234375 -0.640625l0 -5.734375q0 -1.421875 -0.515625 -2.0625q-0.515625 -0.640625 -1.59375 -0.640625q-1.3125 0 -2.0625 0.875q-0.734375 0.875 -0.734375 2.359375l0 5.203125q0 0.40625 -0.25 0.640625q-0.25 0.21875 -0.625 0.21875q-0.390625 0 -0.625 -0.21875q-0.234375 -0.234375 -0.234375 -0.640625l0 -5.734375q0 -1.421875 -0.515625 -2.0625q-0.5 -0.640625 -1.609375 -0.640625q-1.28125 0 -2.046875 0.875q-0.75 0.875 -0.75 2.359375l0 5.203125q0 0.40625 -0.234375 0.640625q-0.234375 0.21875 -0.625 0.21875q-0.375 0 -0.625 -0.21875q-0.25 -0.234375 -0.25 -0.640625l0 -9.0q0 -0.375 0.25 -0.609375q0.25 -0.234375 0.625 -0.234375q0.375 0 0.609375 0.21875q0.234375 0.21875 0.234375 0.609375l0 1.015625q0.46875 -0.90625 1.296875 -1.390625q0.828125 -0.5 1.921875 -0.5q2.421875 0 3.171875 2.046875q0.453125 -0.9375 1.359375 -1.484375q0.921875 -0.5625 2.09375 -0.5625zm14.656006 8.234375q0.234375 0 0.40625 0.1875q0.171875 0.1875 0.171875 0.484375q0 0.546875 -0.75 0.984375q-0.765625 0.453125 -1.625 0.6875q-0.84375 0.21875 -1.65625 0.21875q-2.40625 0 -3.8125 -1.421875q-1.390625 -1.4375 -1.390625 -3.953125q0 -1.609375 0.609375 -2.828125q0.625 -1.234375 1.734375 -1.90625q1.125 -0.6875 2.5625 -0.6875q2.015625 0 3.203125 1.328125q1.203125 1.3125 1.203125 3.578125q0 0.421875 -0.171875 0.625q-0.171875 0.1875 -0.546875 0.1875l-6.875 0q0.203125 3.65625 3.484375 3.65625q0.828125 0 1.421875 -0.21875q0.609375 -0.21875 1.28125 -0.609375q0.5625 -0.3125 0.75 -0.3125zm-3.734375 -6.890625q-1.359375 0 -2.1875 0.859375q-0.8125 0.84375 -0.96875 2.40625l6.03125 0q-0.03125 -1.578125 -0.78125 -2.421875q-0.75 -0.84375 -2.09375 -0.84375zm16.72702 9.453125q-1.453125 0 -2.578125 -0.65625q-1.109375 -0.671875 -1.71875 -1.890625q-0.609375 -1.21875 -0.609375 -2.8125q0 -1.59375 0.625 -2.828125q0.625 -1.25 1.75 -1.921875q1.140625 -0.6875 2.609375 -0.6875q0.8125 0 1.609375 0.234375q0.796875 0.21875 1.40625 0.640625q0.375 0.25 0.53125 0.5q0.171875 0.25 0.171875 0.546875q0 0.296875 -0.171875 0.484375q-0.15625 0.1875 -0.40625 0.1875q-0.15625 0 -0.328125 -0.078125q-0.171875 -0.09375 -0.296875 -0.171875q-0.109375 -0.078125 -0.140625 -0.109375q-0.5625 -0.359375 -1.0625 -0.5625q-0.5 -0.21875 -1.21875 -0.21875q-1.5625 0 -2.4375 1.0625q-0.859375 1.046875 -0.859375 2.921875q0 1.875 0.859375 2.90625q0.875 1.015625 2.4375 1.015625q0.71875 0 1.234375 -0.203125q0.53125 -0.21875 1.0625 -0.578125q0.234375 -0.15625 0.4375 -0.265625q0.21875 -0.109375 0.375 -0.109375q0.234375 0 0.390625 0.203125q0.15625 0.1875 0.15625 0.484375q0 0.28125 -0.15625 0.5q-0.140625 0.21875 -0.546875 0.5q-0.59375 0.40625 -1.4375 0.65625q-0.84375 0.25 -1.6875 0.25zm11.059967 -10.75q0.90625 -0.078125 0.90625 0.71875q0 0.34375 -0.203125 0.546875q-0.1875 0.203125 -0.65625 0.25l-0.640625 0.0625q-1.421875 0.125 -2.125 1.015625q-0.6875 0.875 -0.6875 2.078125l0 5.171875q0 0.4375 -0.234375 0.65625q-0.234375 0.203125 -0.625 0.203125q-0.375 0 -0.625 -0.21875q-0.25 -0.234375 -0.25 -0.640625l0 -9.0q0 -0.40625 0.25 -0.625q0.265625 -0.21875 0.625 -0.21875q0.34375 0 0.578125 0.21875q0.234375 0.21875 0.234375 0.609375l0 1.1875q0.453125 -0.9375 1.265625 -1.421875q0.828125 -0.5 1.890625 -0.578125l0.296875 -0.015625zm10.435104 8.1875q0.234375 0 0.40625 0.1875q0.171875 0.1875 0.171875 0.484375q0 0.546875 -0.75 0.984375q-0.765625 0.453125 -1.625 0.6875q-0.84375 0.21875 -1.65625 0.21875q-2.40625 0 -3.8125 -1.421875q-1.390625 -1.4375 -1.390625 -3.953125q0 -1.609375 0.609375 -2.828125q0.625 -1.234375 1.734375 -1.90625q1.125 -0.6875 2.5625 -0.6875q2.015625 0 3.203125 1.328125q1.203125 1.3125 1.203125 3.578125q0 0.421875 -0.171875 0.625q-0.171875 0.1875 -0.546875 0.1875l-6.875 0q0.203125 3.65625 3.484375 3.65625q0.828125 0 1.421875 -0.21875q0.609375 -0.21875 1.28125 -0.609375q0.5625 -0.3125 0.75 -0.3125zm-3.734375 -6.890625q-1.359375 0 -2.1875 0.859375q-0.8125 0.84375 -0.96875 2.40625l6.03125 0q-0.03125 -1.578125 -0.78125 -2.421875q-0.75 -0.84375 -2.09375 -0.84375zm11.17746 -1.34375q3.90625 0 3.90625 4.09375l0 5.796875q0 0.390625 -0.234375 0.625q-0.21875 0.234375 -0.59375 0.234375q-0.390625 0 -0.625 -0.234375q-0.234375 -0.234375 -0.234375 -0.625l0 -1.015625q-0.40625 0.90625 -1.234375 1.421875q-0.828125 0.5 -1.921875 0.5q-1.0 0 -1.84375 -0.40625q-0.84375 -0.40625 -1.34375 -1.125q-0.484375 -0.734375 -0.484375 -1.609375q0 -1.171875 0.59375 -1.8125q0.609375 -0.65625 1.96875 -0.9375q1.359375 -0.296875 3.796875 -0.296875l0.46875 0l0 -0.703125q0 -1.28125 -0.53125 -1.875q-0.515625 -0.609375 -1.6875 -0.609375q-1.453125 0 -2.9375 0.796875q-0.578125 0.359375 -0.8125 0.359375q-0.265625 0 -0.4375 -0.1875q-0.15625 -0.203125 -0.15625 -0.5q0 -0.296875 0.171875 -0.515625q0.1875 -0.21875 0.59375 -0.453125q0.734375 -0.4375 1.6875 -0.671875q0.953125 -0.25 1.890625 -0.25zm-0.703125 9.421875q1.28125 0 2.09375 -0.859375q0.828125 -0.859375 0.828125 -2.234375l0 -0.609375l-0.390625 0q-1.875 0 -2.859375 0.15625q-0.96875 0.15625 -1.390625 0.53125q-0.421875 0.375 -0.421875 1.09375q0 0.84375 0.609375 1.390625q0.609375 0.53125 1.53125 0.53125zm12.897705 -9.375q0.90625 -0.078125 0.90625 0.71875q0 0.34375 -0.203125 0.546875q-0.1875 0.203125 -0.65625 0.25l-0.640625 0.0625q-1.421875 0.125 -2.125 1.015625q-0.6875 0.875 -0.6875 2.078125l0 5.171875q0 0.4375 -0.234375 0.65625q-0.234375 0.203125 -0.625 0.203125q-0.375 0 -0.625 -0.21875q-0.25 -0.234375 -0.25 -0.640625l0 -9.0q0 -0.40625 0.25 -0.625q0.265625 -0.21875 0.625 -0.21875q0.34375 0 0.578125 0.21875q0.234375 0.21875 0.234375 0.609375l0 1.1875q0.453125 -0.9375 1.265625 -1.421875q0.828125 -0.5 1.890625 -0.578125l0.296875 -0.015625zm10.435104 8.1875q0.234375 0 0.40625 0.1875q0.171875 0.1875 0.171875 0.484375q0 0.546875 -0.75 0.984375q-0.765625 0.453125 -1.625 0.6875q-0.84375 0.21875 -1.65625 0.21875q-2.40625 0 -3.8125 -1.421875q-1.390625 -1.4375 -1.390625 -3.953125q0 -1.609375 0.609375 -2.828125q0.625 -1.234375 1.734375 -1.90625q1.125 -0.6875 2.5625 -0.6875q2.015625 0 3.203125 1.328125q1.203125 1.3125 1.203125 3.578125q0 0.421875 -0.171875 0.625q-0.171875 0.1875 -0.546875 0.1875l-6.875 0q0.203125 3.65625 3.484375 3.65625q0.828125 0 1.421875 -0.21875q0.609375 -0.21875 1.28125 -0.609375q0.5625 -0.3125 0.75 -0.3125zm-3.734375 -6.890625q-1.359375 0 -2.1875 0.859375q-0.8125 0.84375 -0.96875 2.40625l6.03125 0q-0.03125 -1.578125 -0.78125 -2.421875q-0.75 -0.84375 -2.09375 -0.84375zm20.32077 -1.296875q0.40625 0 0.625 0.234375q0.234375 0.234375 0.234375 0.609375l0 9.03125q0 0.359375 -0.234375 0.59375q-0.21875 0.234375 -0.625 0.234375q-0.375 0 -0.609375 -0.21875q-0.21875 -0.234375 -0.21875 -0.59375l0 -1.0625q-0.484375 0.9375 -1.375 1.4375q-0.875 0.484375 -1.984375 0.484375q-1.859375 0 -2.796875 -1.03125q-0.9375 -1.046875 -0.9375 -3.078125l0 -5.796875q0 -0.375 0.234375 -0.609375q0.234375 -0.234375 0.640625 -0.234375q0.40625 0 0.625 0.234375q0.21875 0.234375 0.21875 0.609375l0 5.765625q0 1.375 0.546875 2.03125q0.5625 0.65625 1.765625 0.65625q1.359375 0 2.1875 -0.890625q0.828125 -0.890625 0.828125 -2.328125l0 -5.234375q0 -0.375 0.234375 -0.609375q0.234375 -0.234375 0.640625 -0.234375zm9.308884 -0.046875q3.734375 0 3.734375 4.109375l0 5.78125q0 0.40625 -0.234375 0.640625q-0.21875 0.21875 -0.625 0.21875q-0.40625 0 -0.640625 -0.21875q-0.234375 -0.234375 -0.234375 -0.640625l0 -5.671875q0 -1.453125 -0.5625 -2.109375q-0.5625 -0.65625 -1.796875 -0.65625q-1.4375 0 -2.296875 0.875q-0.84375 0.875 -0.84375 2.359375l0 5.203125q0 0.40625 -0.234375 0.640625q-0.21875 0.21875 -0.625 0.21875q-0.40625 0 -0.640625 -0.21875q-0.234375 -0.234375 -0.234375 -0.640625l0 -9.0q0 -0.375 0.234375 -0.609375q0.234375 -0.234375 0.640625 -0.234375q0.390625 0 0.609375 0.234375q0.234375 0.234375 0.234375 0.59375l0 1.078125q0.5 -0.953125 1.421875 -1.453125q0.921875 -0.5 2.09375 -0.5zm16.695236 10.796875q-1.46875 0 -2.59375 -0.65625q-1.109375 -0.671875 -1.71875 -1.890625q-0.609375 -1.234375 -0.609375 -2.859375q0 -1.625 0.609375 -2.84375q0.609375 -1.234375 1.71875 -1.890625q1.125 -0.65625 2.59375 -0.65625q1.46875 0 2.59375 0.65625q1.140625 0.65625 1.75 1.890625q0.609375 1.21875 0.609375 2.84375q0 1.625 -0.609375 2.859375q-0.609375 1.21875 -1.75 1.890625q-1.125 0.65625 -2.59375 0.65625zm0 -1.4375q1.53125 0 2.34375 -1.015625q0.828125 -1.015625 0.828125 -2.953125q0 -1.890625 -0.828125 -2.921875q-0.828125 -1.046875 -2.34375 -1.046875q-1.515625 0 -2.34375 1.046875q-0.828125 1.03125 -0.828125 2.921875q0 1.921875 0.8125 2.953125q0.828125 1.015625 2.359375 1.015625zm15.962158 -9.3125q0.390625 0 0.625 0.234375q0.25 0.234375 0.25 0.609375l0 9.046875q0 2.328125 -1.203125 3.5q-1.1875 1.1875 -3.546875 1.1875q-2.28125 0 -3.78125 -0.890625q-0.78125 -0.421875 -0.78125 -0.984375q0 -0.296875 0.15625 -0.5q0.171875 -0.1875 0.421875 -0.1875q0.21875 0 0.765625 0.3125q0.75 0.375 1.46875 0.609375q0.734375 0.234375 1.734375 0.234375q1.515625 0 2.28125 -0.796875q0.765625 -0.796875 0.765625 -2.328125l0 -1.84375q-0.4375 1.0 -1.375 1.546875q-0.921875 0.53125 -2.1875 0.53125q-1.359375 0 -2.421875 -0.640625q-1.046875 -0.640625 -1.640625 -1.8125q-0.578125 -1.1875 -0.578125 -2.71875q0 -1.53125 0.578125 -2.703125q0.59375 -1.171875 1.640625 -1.8125q1.0625 -0.640625 2.421875 -0.640625q1.25 0 2.15625 0.53125q0.921875 0.53125 1.390625 1.515625l0 -1.15625q0 -0.375 0.21875 -0.609375q0.234375 -0.234375 0.640625 -0.234375zm-4.0625 8.84375q1.5 0 2.34375 -0.984375q0.859375 -1.0 0.859375 -2.75q0 -1.71875 -0.84375 -2.703125q-0.84375 -1.0 -2.359375 -1.0q-1.515625 0 -2.375 1.0q-0.859375 0.984375 -0.859375 2.703125q0 1.75 0.859375 2.75q0.859375 0.984375 2.375 0.984375zm16.560852 -8.84375q0.390625 0 0.625 0.234375q0.25 0.234375 0.25 0.609375l0 9.046875q0 2.328125 -1.203125 3.5q-1.1875 1.1875 -3.546875 1.1875q-2.28125 0 -3.78125 -0.890625q-0.78125 -0.421875 -0.78125 -0.984375q0 -0.296875 0.15625 -0.5q0.171875 -0.1875 0.421875 -0.1875q0.21875 0 0.765625 0.3125q0.75 0.375 1.46875 0.609375q0.734375 0.234375 1.734375 0.234375q1.515625 0 2.28125 -0.796875q0.765625 -0.796875 0.765625 -2.328125l0 -1.84375q-0.4375 1.0 -1.375 1.546875q-0.921875 0.53125 -2.1875 0.53125q-1.359375 0 -2.421875 -0.640625q-1.046875 -0.640625 -1.640625 -1.8125q-0.578125 -1.1875 -0.578125 -2.71875q0 -1.53125 0.578125 -2.703125q0.59375 -1.171875 1.640625 -1.8125q1.0625 -0.640625 2.421875 -0.640625q1.25 0 2.15625 0.53125q0.921875 0.53125 1.390625 1.515625l0 -1.15625q0 -0.375 0.21875 -0.609375q0.234375 -0.234375 0.640625 -0.234375zm-4.0625 8.84375q1.5 0 2.34375 -0.984375q0.859375 -1.0 0.859375 -2.75q0 -1.71875 -0.84375 -2.703125q-0.84375 -1.0 -2.359375 -1.0q-1.515625 0 -2.375 1.0q-0.859375 0.984375 -0.859375 2.703125q0 1.75 0.859375 2.75q0.859375 0.984375 2.375 0.984375zm16.170197 -0.65625q0.234375 0 0.40625 0.1875q0.171875 0.1875 0.171875 0.484375q0 0.546875 -0.75 0.984375q-0.765625 0.453125 -1.625 0.6875q-0.84375 0.21875 -1.65625 0.21875q-2.40625 0 -3.8125 -1.421875q-1.390625 -1.4375 -1.390625 -3.953125q0 -1.609375 0.609375 -2.828125q0.625 -1.234375 1.734375 -1.90625q1.125 -0.6875 2.5625 -0.6875q2.015625 0 3.203125 1.328125q1.203125 1.3125 1.203125 3.578125q0 0.421875 -0.171875 0.625q-0.171875 0.1875 -0.546875 0.1875l-6.875 0q0.203125 3.65625 3.484375 3.65625q0.828125 0 1.421875 -0.21875q0.609375 -0.21875 1.28125 -0.609375q0.5625 -0.3125 0.75 -0.3125zm-3.734375 -6.890625q-1.359375 0 -2.1875 0.859375q-0.8125 0.84375 -0.96875 2.40625l6.03125 0q-0.03125 -1.578125 -0.78125 -2.421875q-0.75 -0.84375 -2.09375 -0.84375zm11.73996 8.03125q0.734375 0.078125 0.734375 0.6875q0 0.359375 -0.265625 0.546875q-0.265625 0.1875 -0.796875 0.140625l-0.578125 -0.046875q-1.703125 -0.125 -2.515625 -1.015625q-0.8125 -0.90625 -0.8125 -2.71875l0 -5.34375l-1.421875 0q-0.359375 0 -0.5625 -0.1875q-0.203125 -0.1875 -0.203125 -0.484375q0 -0.3125 0.203125 -0.5q0.203125 -0.203125 0.5625 -0.203125l1.421875 0l0 -2.40625q0 -0.40625 0.234375 -0.625q0.234375 -0.234375 0.640625 -0.234375q0.390625 0 0.625 0.234375q0.234375 0.21875 0.234375 0.625l0 2.40625l2.359375 0q0.34375 0 0.546875 0.203125q0.203125 0.1875 0.203125 0.5q0 0.296875 -0.203125 0.484375q-0.203125 0.1875 -0.546875 0.1875l-2.359375 0l0 5.4375q0 1.171875 0.46875 1.703125q0.484375 0.515625 1.453125 0.578125l0.578125 0.03125zm7.251587 0q0.734375 0.078125 0.734375 0.6875q0 0.359375 -0.265625 0.546875q-0.265625 0.1875 -0.796875 0.140625l-0.578125 -0.046875q-1.703125 -0.125 -2.515625 -1.015625q-0.8125 -0.90625 -0.8125 -2.71875l0 -5.34375l-1.421875 0q-0.359375 0 -0.5625 -0.1875q-0.203125 -0.1875 -0.203125 -0.484375q0 -0.3125 0.203125 -0.5q0.203125 -0.203125 0.5625 -0.203125l1.421875 0l0 -2.40625q0 -0.40625 0.234375 -0.625q0.234375 -0.234375 0.640625 -0.234375q0.390625 0 0.625 0.234375q0.234375 0.21875 0.234375 0.625l0 2.40625l2.359375 0q0.34375 0 0.546875 0.203125q0.203125 0.1875 0.203125 0.5q0 0.296875 -0.203125 0.484375q-0.203125 0.1875 -0.546875 0.1875l-2.359375 0l0 5.4375q0 1.171875 0.46875 1.703125q0.484375 0.515625 1.453125 0.578125l0.578125 0.03125zm6.751587 1.421875q-1.46875 0 -2.59375 -0.65625q-1.109375 -0.671875 -1.71875 -1.890625q-0.609375 -1.234375 -0.609375 -2.859375q0 -1.625 0.609375 -2.84375q0.609375 -1.234375 1.71875 -1.890625q1.125 -0.65625 2.59375 -0.65625q1.46875 0 2.59375 0.65625q1.140625 0.65625 1.75 1.890625q0.609375 1.21875 0.609375 2.84375q0 1.625 -0.609375 2.859375q-0.609375 1.21875 -1.75 1.890625q-1.125 0.65625 -2.59375 0.65625zm0 -1.4375q1.53125 0 2.34375 -1.015625q0.828125 -1.015625 0.828125 -2.953125q0 -1.890625 -0.828125 -2.921875q-0.828125 -1.046875 -2.34375 -1.046875q-1.515625 0 -2.34375 1.046875q-0.828125 1.03125 -0.828125 2.921875q0 1.921875 0.8125 2.953125q0.828125 1.015625 2.359375 1.015625zm15.886719 4.78125q-2.25 -4.328125 -2.25 -9.109375q0 -4.78125 2.25 -9.109375q0.28125 -0.484375 0.75 -0.484375q0.25 0 0.4375 0.171875q0.1875 0.171875 0.1875 0.421875q0 0.15625 -0.0625 0.3125q-1.796875 4.234375 -1.796875 8.6875q0 4.453125 1.796875 8.6875q0.0625 0.1875 0.0625 0.3125q0 0.28125 -0.1875 0.4375q-0.1875 0.15625 -0.4375 0.15625q-0.46875 0 -0.75 -0.484375zm15.400177 -14.140625q3.453125 0 3.453125 4.109375l0 5.78125q0 0.40625 -0.234375 0.640625q-0.234375 0.21875 -0.609375 0.21875q-0.390625 0 -0.640625 -0.21875q-0.234375 -0.234375 -0.234375 -0.640625l0 -5.734375q0 -1.421875 -0.515625 -2.0625q-0.515625 -0.640625 -1.59375 -0.640625q-1.3125 0 -2.0625 0.875q-0.734375 0.875 -0.734375 2.359375l0 5.203125q0 0.40625 -0.25 0.640625q-0.25 0.21875 -0.625 0.21875q-0.390625 0 -0.625 -0.21875q-0.234375 -0.234375 -0.234375 -0.640625l0 -5.734375q0 -1.421875 -0.515625 -2.0625q-0.5 -0.640625 -1.609375 -0.640625q-1.28125 0 -2.046875 0.875q-0.75 0.875 -0.75 2.359375l0 5.203125q0 0.40625 -0.234375 0.640625q-0.234375 0.21875 -0.625 0.21875q-0.375 0 -0.625 -0.21875q-0.25 -0.234375 -0.25 -0.640625l0 -9.0q0 -0.375 0.25 -0.609375q0.25 -0.234375 0.625 -0.234375q0.375 0 0.609375 0.21875q0.234375 0.21875 0.234375 0.609375l0 1.015625q0.46875 -0.90625 1.296875 -1.390625q0.828125 -0.5 1.921875 -0.5q2.421875 0 3.171875 2.046875q0.453125 -0.9375 1.359375 -1.484375q0.921875 -0.5625 2.09375 -0.5625zm14.656006 8.234375q0.234375 0 0.40625 0.1875q0.171875 0.1875 0.171875 0.484375q0 0.546875 -0.75 0.984375q-0.765625 0.453125 -1.625 0.6875q-0.84375 0.21875 -1.65625 0.21875q-2.40625 0 -3.8125 -1.421875q-1.390625 -1.4375 -1.390625 -3.953125q0 -1.609375 0.609375 -2.828125q0.625 -1.234375 1.734375 -1.90625q1.125 -0.6875 2.5625 -0.6875q2.015625 0 3.203125 1.328125q1.203125 1.3125 1.203125 3.578125q0 0.421875 -0.171875 0.625q-0.171875 0.1875 -0.546875 0.1875l-6.875 0q0.203125 3.65625 3.484375 3.65625q0.828125 0 1.421875 -0.21875q0.609375 -0.21875 1.28125 -0.609375q0.5625 -0.3125 0.75 -0.3125zm-3.734375 -6.890625q-1.359375 0 -2.1875 0.859375q-0.8125 0.84375 -0.96875 2.40625l6.03125 0q-0.03125 -1.578125 -0.78125 -2.421875q-0.75 -0.84375 -2.09375 -0.84375zm10.42746 9.453125q-0.984375 0 -1.875 -0.234375q-0.875 -0.234375 -1.5625 -0.671875q-0.375 -0.25 -0.546875 -0.46875q-0.15625 -0.234375 -0.15625 -0.546875q0 -0.28125 0.15625 -0.453125q0.171875 -0.1875 0.421875 -0.1875q0.265625 0 0.75 0.3125q0.640625 0.390625 1.265625 0.609375q0.640625 0.21875 1.578125 0.21875q1.140625 0 1.78125 -0.390625q0.640625 -0.40625 0.640625 -1.1875q0 -0.46875 -0.234375 -0.75q-0.234375 -0.28125 -0.8125 -0.5q-0.578125 -0.234375 -1.6875 -0.46875q-1.875 -0.40625 -2.6875 -1.078125q-0.796875 -0.6875 -0.796875 -1.859375q0 -0.921875 0.5 -1.625q0.515625 -0.703125 1.421875 -1.109375q0.90625 -0.40625 2.0625 -0.40625q0.828125 0 1.609375 0.234375q0.78125 0.21875 1.375 0.609375q0.71875 0.515625 0.71875 1.078125q0 0.265625 -0.171875 0.46875q-0.15625 0.1875 -0.390625 0.1875q-0.265625 0 -0.78125 -0.359375q-0.59375 -0.390625 -1.125 -0.59375q-0.53125 -0.21875 -1.328125 -0.21875q-1.0 0 -1.609375 0.453125q-0.609375 0.4375 -0.609375 1.1875q0 0.46875 0.21875 0.765625q0.234375 0.28125 0.75 0.515625q0.53125 0.21875 1.515625 0.421875q1.453125 0.328125 2.25 0.71875q0.796875 0.375 1.140625 0.9375q0.34375 0.546875 0.34375 1.390625q0 1.34375 -1.140625 2.171875q-1.125 0.828125 -2.984375 0.828125zm11.987549 -10.796875q1.84375 0 2.78125 1.03125q0.9375 1.03125 0.9375 3.078125l0 5.78125q0 0.40625 -0.234375 0.640625q-0.234375 0.21875 -0.625 0.21875q-0.40625 0 -0.640625 -0.21875q-0.234375 -0.234375 -0.234375 -0.640625l0 -5.734375q0 -1.390625 -0.5625 -2.046875q-0.5625 -0.65625 -1.796875 -0.65625q-1.4375 0 -2.296875 0.875q-0.84375 0.875 -0.84375 2.359375l0 5.203125q0 0.40625 -0.234375 0.640625q-0.21875 0.21875 -0.625 0.21875q-0.40625 0 -0.640625 -0.21875q-0.234375 -0.234375 -0.234375 -0.640625l0 -13.5625q0 -0.359375 0.25 -0.59375q0.25 -0.234375 0.625 -0.234375q0.40625 0 0.625 0.234375q0.234375 0.21875 0.234375 0.59375l0 5.59375q0.515625 -0.9375 1.421875 -1.421875q0.921875 -0.5 2.09375 -0.5zm21.69522 3.90625q0.28125 0 0.484375 0.1875q0.203125 0.1875 0.203125 0.46875q0 0.28125 -0.203125 0.484375q-0.1875 0.203125 -0.484375 0.203125l-3.859375 0l0 3.828125q0 0.296875 -0.203125 0.5q-0.1875 0.1875 -0.453125 0.1875q-0.28125 0 -0.484375 -0.203125q-0.1875 -0.203125 -0.1875 -0.484375l0 -3.828125l-3.859375 0q-0.28125 0 -0.484375 -0.203125q-0.203125 -0.203125 -0.203125 -0.484375q0 -0.28125 0.203125 -0.46875q0.203125 -0.1875 0.484375 -0.1875l3.859375 0l0 -3.84375q0 -0.296875 0.1875 -0.5q0.203125 -0.203125 0.484375 -0.203125q0.265625 0 0.453125 0.203125q0.203125 0.203125 0.203125 0.5l0 3.84375l3.859375 0zm20.533997 -3.90625q3.453125 0 3.453125 4.109375l0 5.78125q0 0.40625 -0.234375 0.640625q-0.234375 0.21875 -0.609375 0.21875q-0.390625 0 -0.640625 -0.21875q-0.234375 -0.234375 -0.234375 -0.640625l0 -5.734375q0 -1.421875 -0.515625 -2.0625q-0.515625 -0.640625 -1.59375 -0.640625q-1.3125 0 -2.0625 0.875q-0.734375 0.875 -0.734375 2.359375l0 5.203125q0 0.40625 -0.25 0.640625q-0.25 0.21875 -0.625 0.21875q-0.390625 0 -0.625 -0.21875q-0.234375 -0.234375 -0.234375 -0.640625l0 -5.734375q0 -1.421875 -0.515625 -2.0625q-0.5 -0.640625 -1.609375 -0.640625q-1.28125 0 -2.046875 0.875q-0.75 0.875 -0.75 2.359375l0 5.203125q0 0.40625 -0.234375 0.640625q-0.234375 0.21875 -0.625 0.21875q-0.375 0 -0.625 -0.21875q-0.25 -0.234375 -0.25 -0.640625l0 -9.0q0 -0.375 0.25 -0.609375q0.25 -0.234375 0.625 -0.234375q0.375 0 0.609375 0.21875q0.234375 0.21875 0.234375 0.609375l0 1.015625q0.46875 -0.90625 1.296875 -1.390625q0.828125 -0.5 1.921875 -0.5q2.421875 0 3.171875 2.046875q0.453125 -0.9375 1.359375 -1.484375q0.921875 -0.5625 2.09375 -0.5625zm10.859131 0q3.90625 0 3.90625 4.09375l0 5.796875q0 0.390625 -0.234375 0.625q-0.21875 0.234375 -0.59375 0.234375q-0.390625 0 -0.625 -0.234375q-0.234375 -0.234375 -0.234375 -0.625l0 -1.015625q-0.40625 0.90625 -1.234375 1.421875q-0.828125 0.5 -1.921875 0.5q-1.0 0 -1.84375 -0.40625q-0.84375 -0.40625 -1.34375 -1.125q-0.484375 -0.734375 -0.484375 -1.609375q0 -1.171875 0.59375 -1.8125q0.609375 -0.65625 1.96875 -0.9375q1.359375 -0.296875 3.796875 -0.296875l0.46875 0l0 -0.703125q0 -1.28125 -0.53125 -1.875q-0.515625 -0.609375 -1.6875 -0.609375q-1.453125 0 -2.9375 0.796875q-0.578125 0.359375 -0.8125 0.359375q-0.265625 0 -0.4375 -0.1875q-0.15625 -0.203125 -0.15625 -0.5q0 -0.296875 0.171875 -0.515625q0.1875 -0.21875 0.59375 -0.453125q0.734375 -0.4375 1.6875 -0.671875q0.953125 -0.25 1.890625 -0.25zm-0.703125 9.421875q1.28125 0 2.09375 -0.859375q0.828125 -0.859375 0.828125 -2.234375l0 -0.609375l-0.390625 0q-1.875 0 -2.859375 0.15625q-0.96875 0.15625 -1.390625 0.53125q-0.421875 0.375 -0.421875 1.09375q0 0.84375 0.609375 1.390625q0.609375 0.53125 1.53125 0.53125zm12.56958 -0.046875q0.734375 0.078125 0.734375 0.6875q0 0.359375 -0.265625 0.546875q-0.265625 0.1875 -0.796875 0.140625l-0.578125 -0.046875q-1.703125 -0.125 -2.515625 -1.015625q-0.8125 -0.90625 -0.8125 -2.71875l0 -5.34375l-1.421875 0q-0.359375 0 -0.5625 -0.1875q-0.203125 -0.1875 -0.203125 -0.484375q0 -0.3125 0.203125 -0.5q0.203125 -0.203125 0.5625 -0.203125l1.421875 0l0 -2.40625q0 -0.40625 0.234375 -0.625q0.234375 -0.234375 0.640625 -0.234375q0.390625 0 0.625 0.234375q0.234375 0.21875 0.234375 0.625l0 2.40625l2.359375 0q0.34375 0 0.546875 0.203125q0.203125 0.1875 0.203125 0.5q0 0.296875 -0.203125 0.484375q-0.203125 0.1875 -0.546875 0.1875l-2.359375 0l0 5.4375q0 1.171875 0.46875 1.703125q0.484375 0.515625 1.453125 0.578125l0.578125 0.03125zm10.485962 -1.140625q0.234375 0 0.40625 0.1875q0.171875 0.1875 0.171875 0.484375q0 0.546875 -0.75 0.984375q-0.765625 0.453125 -1.625 0.6875q-0.84375 0.21875 -1.65625 0.21875q-2.40625 0 -3.8125 -1.421875q-1.390625 -1.4375 -1.390625 -3.953125q0 -1.609375 0.609375 -2.828125q0.625 -1.234375 1.734375 -1.90625q1.125 -0.6875 2.5625 -0.6875q2.015625 0 3.203125 1.328125q1.203125 1.3125 1.203125 3.578125q0 0.421875 -0.171875 0.625q-0.171875 0.1875 -0.546875 0.1875l-6.875 0q0.203125 3.65625 3.484375 3.65625q0.828125 0 1.421875 -0.21875q0.609375 -0.21875 1.28125 -0.609375q0.5625 -0.3125 0.75 -0.3125zm-3.734375 -6.890625q-1.359375 0 -2.1875 0.859375q-0.8125 0.84375 -0.96875 2.40625l6.03125 0q-0.03125 -1.578125 -0.78125 -2.421875q-0.75 -0.84375 -2.09375 -0.84375zm12.068085 -1.296875q0.90625 -0.078125 0.90625 0.71875q0 0.34375 -0.203125 0.546875q-0.1875 0.203125 -0.65625 0.25l-0.640625 0.0625q-1.421875 0.125 -2.125 1.015625q-0.6875 0.875 -0.6875 2.078125l0 5.171875q0 0.4375 -0.234375 0.65625q-0.234375 0.203125 -0.625 0.203125q-0.375 0 -0.625 -0.21875q-0.25 -0.234375 -0.25 -0.640625l0 -9.0q0 -0.40625 0.25 -0.625q0.265625 -0.21875 0.625 -0.21875q0.34375 0 0.578125 0.21875q0.234375 0.21875 0.234375 0.609375l0 1.1875q0.453125 -0.9375 1.265625 -1.421875q0.828125 -0.5 1.890625 -0.578125l0.296875 -0.015625zm3.263214 10.703125q-0.375 0 -0.625 -0.21875q-0.25 -0.234375 -0.25 -0.640625l0 -9.0q0 -0.40625 0.25 -0.625q0.25 -0.21875 0.625 -0.21875q0.390625 0 0.625 0.21875q0.234375 0.21875 0.234375 0.625l0 9.0q0 0.4375 -0.234375 0.65625q-0.234375 0.203125 -0.625 0.203125zm0 -12.953125q-0.515625 0 -0.828125 -0.296875q-0.3125 -0.296875 -0.3125 -0.78125q0 -0.46875 0.3125 -0.765625q0.3125 -0.3125 0.828125 -0.3125q0.515625 0 0.828125 0.3125q0.328125 0.296875 0.328125 0.765625q0 0.484375 -0.328125 0.78125q-0.3125 0.296875 -0.828125 0.296875zm8.323151 2.203125q3.90625 0 3.90625 4.09375l0 5.796875q0 0.390625 -0.234375 0.625q-0.21875 0.234375 -0.59375 0.234375q-0.390625 0 -0.625 -0.234375q-0.234375 -0.234375 -0.234375 -0.625l0 -1.015625q-0.40625 0.90625 -1.234375 1.421875q-0.828125 0.5 -1.921875 0.5q-1.0 0 -1.84375 -0.40625q-0.84375 -0.40625 -1.34375 -1.125q-0.484375 -0.734375 -0.484375 -1.609375q0 -1.171875 0.59375 -1.8125q0.609375 -0.65625 1.96875 -0.9375q1.359375 -0.296875 3.796875 -0.296875l0.46875 0l0 -0.703125q0 -1.28125 -0.53125 -1.875q-0.515625 -0.609375 -1.6875 -0.609375q-1.453125 0 -2.9375 0.796875q-0.578125 0.359375 -0.8125 0.359375q-0.265625 0 -0.4375 -0.1875q-0.15625 -0.203125 -0.15625 -0.5q0 -0.296875 0.171875 -0.515625q0.1875 -0.21875 0.59375 -0.453125q0.734375 -0.4375 1.6875 -0.671875q0.953125 -0.25 1.890625 -0.25zm-0.703125 9.421875q1.28125 0 2.09375 -0.859375q0.828125 -0.859375 0.828125 -2.234375l0 -0.609375l-0.390625 0q-1.875 0 -2.859375 0.15625q-0.96875 0.15625 -1.390625 0.53125q-0.421875 0.375 -0.421875 1.09375q0 0.84375 0.609375 1.390625q0.609375 0.53125 1.53125 0.53125zm8.63208 1.328125q-0.375 0 -0.625 -0.21875q-0.25 -0.234375 -0.25 -0.640625l0 -13.546875q0 -0.390625 0.25 -0.609375q0.25 -0.234375 0.625 -0.234375q0.375 0 0.609375 0.234375q0.25 0.21875 0.25 0.609375l0 13.546875q0 0.40625 -0.25 0.640625q-0.234375 0.21875 -0.609375 0.21875zm12.120026 -2.515625q0.234375 0 0.40625 0.1875q0.171875 0.1875 0.171875 0.484375q0 0.546875 -0.75 0.984375q-0.765625 0.453125 -1.625 0.6875q-0.84375 0.21875 -1.65625 0.21875q-2.40625 0 -3.8125 -1.421875q-1.390625 -1.4375 -1.390625 -3.953125q0 -1.609375 0.609375 -2.828125q0.625 -1.234375 1.734375 -1.90625q1.125 -0.6875 2.5625 -0.6875q2.015625 0 3.203125 1.328125q1.203125 1.3125 1.203125 3.578125q0 0.421875 -0.171875 0.625q-0.171875 0.1875 -0.546875 0.1875l-6.875 0q0.203125 3.65625 3.484375 3.65625q0.828125 0 1.421875 -0.21875q0.609375 -0.21875 1.28125 -0.609375q0.5625 -0.3125 0.75 -0.3125zm-3.734375 -6.890625q-1.359375 0 -2.1875 0.859375q-0.8125 0.84375 -0.96875 2.40625l6.03125 0q-0.03125 -1.578125 -0.78125 -2.421875q-0.75 -0.84375 -2.09375 -0.84375zm7.5993347 12.796875q-0.28125 0.484375 -0.765625 0.484375q-0.265625 0 -0.453125 -0.15625q-0.171875 -0.15625 -0.171875 -0.421875q0 -0.078125 0.078125 -0.328125q1.78125 -4.25 1.78125 -8.6875q0 -4.4375 -1.78125 -8.6875q-0.078125 -0.25 -0.078125 -0.328125q0 -0.265625 0.171875 -0.421875q0.1875 -0.15625 0.453125 -0.15625q0.484375 0 0.765625 0.484375q2.234375 4.359375 2.234375 9.109375q0 4.75 -2.234375 9.109375z" fill-rule="nonzero"/></g></svg>